<svg xmlns="http://www.w3.org/2000/svg" width="1000" height="235" viewBox="0 0 1000 235">
  <defs>
    <linearGradient id="l2d" x1="0" y1="0" x2="1" y2="0"><stop offset="0" stop-color="#D9D9D9"/><stop offset="1" stop-color="#0A0A0A"/></linearGradient>
    <linearGradient id="d2l" x1="0" y1="0" x2="1" y2="0"><stop offset="0" stop-color="#0A0A0A"/><stop offset="1" stop-color="#D9D9D9"/></linearGradient>
  </defs>
  <rect width="1000" height="235" fill="#FFF"/>
  <text x="530" y="38" text-anchor="middle" font-family="Gentium Book Plus, serif" font-size="22" font-weight="bold" fill="#000">Evening to Evening</text>
  <path d="M 337 60 L 337 48 M 337 54 L 723 54 M 723 48 L 723 60" stroke="#000" stroke-width="2" fill="none"/>
  <rect x="70" y="95" width="15" height="55" fill="#0A0A0A"/>
  <rect x="85" y="95" width="30" height="55" fill="url(#d2l)"/>
  <rect x="115" y="95" width="215" height="55" fill="#D9D9D9"/>
  <rect x="330" y="95" width="35" height="55" fill="url(#l2d)"/>
  <rect x="365" y="95" width="130" height="55" fill="#0A0A0A"/>
  <rect x="495" y="95" width="35" height="55" fill="url(#d2l)"/>
  <rect x="530" y="95" width="165" height="55" fill="#D9D9D9"/>
  <rect x="695" y="95" width="35" height="55" fill="url(#l2d)"/>
  <rect x="730" y="95" width="200" height="55" fill="#0A0A0A"/>
  <rect x="70" y="95" width="860" height="55" fill="none" stroke="#000" stroke-width="1"/>
  <path d="M 70 176 L 70 168 L 512 168 L 512 176" stroke="#000" stroke-width="2" fill="none"/><text x="291.0" y="198" text-anchor="middle" font-family="Gentium Book Plus, serif" font-size="21" fill="#000">9th Day</text>
  <path d="M 512 176 L 512 168 L 930 168 L 930 176" stroke="#000" stroke-width="2" fill="none"/><text x="721.0" y="198" text-anchor="middle" font-family="Gentium Book Plus, serif" font-size="21" fill="#000">10th Day</text>
</svg>