<svg xmlns="http://www.w3.org/2000/svg" viewBox="0 0 820 635" font-family="Gentium Book Plus">
<defs>
  <linearGradient id="bellGrad" x1="0" y1="0" x2="0" y2="1">
    <stop offset="0%" stop-color="#E53935" stop-opacity="0.7"/>
    <stop offset="100%" stop-color="#E53935" stop-opacity="0.1"/>
  </linearGradient>
</defs>
<rect width="820" height="635" fill="#1a1a2e" rx="12"/>
<text x="410" y="32" text-anchor="middle" fill="#e0e0e0" font-size="18" font-weight="700">Convergence of Evidence: The Remnant Ratio</text>
<text x="410" y="52" text-anchor="middle" fill="#888" font-size="12">Log scale — each bar shows the range implied by that line of evidence</text>
<line x1="324" y1="58" x2="324" y2="555" stroke="#333" stroke-width="1" stroke-dasharray="4,4"/>
<text x="324" y="573" text-anchor="middle" fill="#888" font-size="11">0.01%</text>
<line x1="383.0018791501403" y1="58" x2="383.0018791501403" y2="555" stroke="#333" stroke-width="1" stroke-dasharray="4,4"/>
<text x="383.0018791501403" y="573" text-anchor="middle" fill="#888" font-size="11">0.02%</text>
<line x1="460.9981208498597" y1="58" x2="460.9981208498597" y2="555" stroke="#333" stroke-width="1" stroke-dasharray="4,4"/>
<text x="460.9981208498597" y="573" text-anchor="middle" fill="#888" font-size="11">0.05%</text>
<line x1="520" y1="58" x2="520" y2="555" stroke="#333" stroke-width="1" stroke-dasharray="4,4"/>
<text x="520" y="573" text-anchor="middle" fill="#888" font-size="11">0.1%</text>
<line x1="579.0018791501403" y1="58" x2="579.0018791501403" y2="555" stroke="#333" stroke-width="1" stroke-dasharray="4,4"/>
<text x="579.0018791501403" y="573" text-anchor="middle" fill="#888" font-size="11">0.2%</text>
<line x1="656.9981208498597" y1="58" x2="656.9981208498597" y2="555" stroke="#333" stroke-width="1" stroke-dasharray="4,4"/>
<text x="656.9981208498597" y="573" text-anchor="middle" fill="#888" font-size="11">0.5%</text>
<line x1="716" y1="58" x2="716" y2="555" stroke="#333" stroke-width="1" stroke-dasharray="4,4"/>
<text x="716" y="573" text-anchor="middle" fill="#888" font-size="11">1%</text>
<line x1="583.1549817678482" y1="58" x2="583.1549817678482" y2="553" stroke="#E53935" stroke-width="2" stroke-dasharray="6,3" opacity="0.8"/>
<text x="253" y="81" text-anchor="end" fill="#ccc" font-size="11.5">Elijah's 7,000 (Rom 11)</text>
<rect x="626.637336692654" y="66" width="59.001879150140326" height="21" fill="#FF9800" opacity="0.6" rx="4"/>
<rect x="626.637336692654" y="66" width="59.001879150140326" height="21" fill="none" stroke="#FF9800" stroke-width="1.5" rx="4" opacity="0.9"/>
<circle cx="656.1382762677242" cy="76.5" r="3" fill="white" opacity="0.8"/>
<text x="253" y="109" text-anchor="end" fill="#ccc" font-size="11.5">One of a City (Jer 3:14)</text>
<rect x="520" y="94" width="59.001879150140326" height="21" fill="#2196F3" opacity="0.6" rx="4"/>
<rect x="520" y="94" width="59.001879150140326" height="21" fill="none" stroke="#2196F3" stroke-width="1.5" rx="4" opacity="0.9"/>
<circle cx="549.5009395750701" cy="104.5" r="3" fill="white" opacity="0.8"/>
<text x="253" y="137" text-anchor="end" fill="#ccc" font-size="11.5">True Prophets (1 Ki 22/18)</text>
<rect x="535.5195242253344" y="122" width="62.47671747438494" height="21" fill="#CE93D8" opacity="0.6" rx="4"/>
<rect x="535.5195242253344" y="122" width="62.47671747438494" height="21" fill="none" stroke="#CE93D8" stroke-width="1.5" rx="4" opacity="0.9"/>
<circle cx="566.757882962527" cy="132.5" r="3" fill="white" opacity="0.8"/>
<text x="253" y="165" text-anchor="end" fill="#ccc" font-size="11.5">Feeding 5k/4k (John 6)</text>
<rect x="460.9981208498597" y="150" width="133.52328252561506" height="21" fill="#F44336" opacity="0.6" rx="4"/>
<rect x="460.9981208498597" y="150" width="133.52328252561506" height="21" fill="none" stroke="#F44336" stroke-width="1.5" rx="4" opacity="0.9"/>
<circle cx="527.7597621126672" cy="160.5" r="3" fill="white" opacity="0.8"/>
<text x="253" y="193" text-anchor="end" fill="#ccc" font-size="11.5">Olive Gleanings (Isa 17:6)</text>
<rect x="417.5157659250538" y="178" width="239.48235492480586" height="21" fill="#8BC34A" opacity="0.6" rx="4"/>
<rect x="417.5157659250538" y="178" width="239.48235492480586" height="21" fill="none" stroke="#8BC34A" stroke-width="1.5" rx="4" opacity="0.9"/>
<circle cx="537.2569433874568" cy="188.5" r="3" fill="white" opacity="0.8"/>
<text x="253" y="221" text-anchor="end" fill="#ccc" font-size="11.5">1 in 1,000 (Eccl 7:28)</text>
<rect x="417.5157659250538" y="206" width="102.48423407494619" height="21" fill="#E91E63" opacity="0.6" rx="4"/>
<rect x="417.5157659250538" y="206" width="102.48423407494619" height="21" fill="none" stroke="#E91E63" stroke-width="1.5" rx="4" opacity="0.9"/>
<circle cx="468.75788296252693" cy="216.5" r="3" fill="white" opacity="0.8"/>
<text x="253" y="249" text-anchor="end" fill="#ccc" font-size="11.5">Edge of the Field (Lev 19:9)</text>
<rect x="597.9962416997193" y="234" width="60.68751281547611" height="21" fill="#9C27B0" opacity="0.6" rx="4"/>
<rect x="597.9962416997193" y="234" width="60.68751281547611" height="21" fill="none" stroke="#9C27B0" stroke-width="1.5" rx="4" opacity="0.9"/>
<circle cx="628.3399981074574" cy="244.5" r="3" fill="white" opacity="0.8"/>
<text x="253" y="277" text-anchor="end" fill="#ccc" font-size="11.5">Lion among Beasts (Mic 5:8)</text>
<rect x="548.6410949929347" y="262" width="167.35890500706535" height="21" fill="#795548" opacity="0.6" rx="4"/>
<rect x="548.6410949929347" y="262" width="167.35890500706535" height="21" fill="none" stroke="#795548" stroke-width="1.5" rx="4" opacity="0.9"/>
<circle cx="632.3205474964673" cy="272.5" r="3" fill="white" opacity="0.8"/>
<text x="253" y="305" text-anchor="end" fill="#ccc" font-size="11.5">Israel among Nations (Deut 7:7)</text>
<rect x="535.5195242253344" y="290" width="124.81713112708621" height="21" fill="#00BCD4" opacity="0.6" rx="4"/>
<rect x="535.5195242253344" y="290" width="124.81713112708621" height="21" fill="none" stroke="#00BCD4" stroke-width="1.5" rx="4" opacity="0.9"/>
<circle cx="597.9280897888775" cy="300.5" r="3" fill="white" opacity="0.8"/>
<text x="253" y="333" text-anchor="end" fill="#ccc" font-size="11.5">Vine and Fig Tree (Mic 4:4)</text>
<rect x="570.033411000248" y="318" width="24.48799237522678" height="21" fill="#4CAF50" opacity="0.6" rx="4"/>
<rect x="570.033411000248" y="318" width="24.48799237522678" height="21" fill="none" stroke="#4CAF50" stroke-width="1.5" rx="4" opacity="0.9"/>
<circle cx="582.2774071878614" cy="328.5" r="3" fill="white" opacity="0.8"/>
<text x="253" y="361" text-anchor="end" fill="#ccc" font-size="11.5">Job's Household (Job 1)</text>
<rect x="672.5176450751942" y="346" width="62.47671747438483" height="21" fill="#FF5722" opacity="0.6" rx="4"/>
<rect x="672.5176450751942" y="346" width="62.47671747438483" height="21" fill="none" stroke="#FF5722" stroke-width="1.5" rx="4" opacity="0.9"/>
<circle cx="703.7560038123866" cy="356.5" r="3" fill="white" opacity="0.8"/>
<text x="253" y="389" text-anchor="end" fill="#ccc" font-size="11.5">Rahab's House (Josh 2/6)</text>
<rect x="638.0037583002807" y="374" width="112.5101284746329" height="21" fill="#FFAB40" opacity="0.6" rx="4"/>
<rect x="638.0037583002807" y="374" width="112.5101284746329" height="21" fill="none" stroke="#FFAB40" stroke-width="1.5" rx="4" opacity="0.9"/>
<circle cx="694.2588225375971" cy="384.5" r="3" fill="white" opacity="0.8"/>
<text x="253" y="417" text-anchor="end" fill="#ccc" font-size="11.5">Rarer than Gold (Isa 13:12)</text>
<rect x="324" y="402" width="392" height="21" fill="#FFC107" opacity="0.6" rx="4"/>
<rect x="324" y="402" width="392" height="21" fill="none" stroke="#FFC107" stroke-width="1.5" rx="4" opacity="0.9"/>
<circle cx="520" cy="412.5" r="3" fill="white" opacity="0.8"/>
<text x="253" y="445" text-anchor="end" fill="#ccc" font-size="11.5">Gold vs Clay (2 Esdras)</text>
<rect x="511.0315318501076" y="430" width="72.12344991774057" height="21" fill="#607D8B" opacity="0.6" rx="4"/>
<rect x="511.0315318501076" y="430" width="72.12344991774057" height="21" fill="none" stroke="#607D8B" stroke-width="1.5" rx="4" opacity="0.9"/>
<circle cx="547.0932568089779" cy="440.5" r="3" fill="white" opacity="0.8"/>
<text x="253" y="473" text-anchor="end" fill="#ccc" font-size="11.5">Pharisees: 6,000 — an upper bound</text>
<rect x="324" y="458" width="348.5176450751942" height="21" fill="#3F51B5" opacity="0.6" rx="4"/>
<rect x="324" y="458" width="348.5176450751942" height="21" fill="none" stroke="#3F51B5" stroke-width="1.5" rx="4" opacity="0.9"/>
<circle cx="498.2588225375971" cy="468.5" r="3" fill="white" opacity="0.8"/>
<path d="M 265 553 L 265 553 L 266.7 553 L 268.4 553 L 270.09999999999997 553 L 271.79999999999995 553 L 273.49999999999994 553 L 275.19999999999993 553 L 276.8999999999999 553 L 278.5999999999999 553 L 280.2999999999999 553 L 281.9999999999999 553 L 283.6999999999999 553 L 285.39999999999986 553 L 287.09999999999985 553 L 288.79999999999984 553 L 290.49999999999983 553 L 292.1999999999998 553 L 293.8999999999998 553 L 295.5999999999998 553 L 297.2999999999998 553 L 298.9999999999998 553 L 300.69999999999976 553 L 302.39999999999975 553 L 304.09999999999974 553 L 305.7999999999997 553 L 307.4999999999997 553 L 309.1999999999997 553 L 310.8999999999997 553 L 312.5999999999997 553 L 314.29999999999967 553 L 315.99999999999966 553 L 317.69999999999965 553 L 319.39999999999964 553 L 321.0999999999996 553 L 322.7999999999996 553 L 324.4999999999996 553 L 326.1999999999996 553 L 327.8999999999996 553 L 329.59999999999957 553 L 331.29999999999956 553 L 332.99999999999955 553 L 334.69999999999953 553 L 336.3999999999995 553 L 338.0999999999995 553 L 339.7999999999995 553 L 341.4999999999995 553 L 343.1999999999995 553 L 344.89999999999947 553 L 346.59999999999945 553 L 348.29999999999944 553 L 349.99999999999943 553 L 351.6999999999994 553 L 353.3999999999994 553 L 355.0999999999994 553 L 356.7999999999994 553 L 358.4999999999994 553 L 360.19999999999936 553 L 361.89999999999935 553 L 363.59999999999934 553 L 365.29999999999933 553 L 366.9999999999993 553 L 368.6999999999993 553 L 370.3999999999993 553 L 372.0999999999993 553 L 373.7999999999993 553 L 375.49999999999926 553 L 377.19999999999925 553 L 378.89999999999924 553 L 380.5999999999992 553 L 382.2999999999992 553 L 383.9999999999992 553 L 385.6999999999992 553 L 387.3999999999992 553 L 389.09999999999917 553 L 390.79999999999916 553 L 392.49999999999915 553 L 394.19999999999914 553 L 395.8999999999991 553 L 397.5999999999991 553 L 399.2999999999991 553 L 400.9999999999991 553 L 402.6999999999991 553 L 404.39999999999907 553 L 406.09999999999906 553 L 407.79999999999905 553 L 409.49999999999903 553 L 411.199999999999 553 L 412.899999999999 553 L 414.599999999999 553 L 416.299999999999 553 L 417.999999999999 553 L 419.69999999999897 553 L 421.39999999999895 553 L 423.09999999999894 553 L 424.79999999999893 553 L 426.4999999999989 553 L 428.1999999999989 553 L 429.8999999999989 553 L 431.5999999999989 553 L 433.2999999999989 553 L 434.99999999999886 553 L 436.69999999999885 553 L 438.39999999999884 553 L 440.09999999999883 553 L 441.7999999999988 553 L 443.4999999999988 553 L 445.1999999999988 553 L 446.8999999999988 553 L 448.5999999999988 553 L 450.29999999999876 553 L 451.99999999999875 553 L 453.69999999999874 553 L 455.3999999999987 553 L 457.0999999999987 553 L 458.7999999999987 553 L 460.4999999999987 553 L 462.1999999999987 553 L 463.89999999999867 553 L 465.59999999999866 553 L 467.29999999999865 553 L 468.99999999999864 553 L 470.6999999999986 553 L 472.3999999999986 553 L 474.0999999999986 553 L 475.7999999999986 553 L 477.4999999999986 553 L 479.19999999999857 553 L 480.89999999999856 553 L 482.59999999999854 553 L 484.29999999999853 553 L 485.9999999999985 553 L 487.6999999999985 553 L 489.3999999999985 553 L 491.0999999999985 553 L 492.7999999999985 553 L 494.49999999999847 553 L 496.19999999999845 553 L 497.89999999999844 553 L 499.59999999999843 552.9999999999999 L 501.2999999999984 552.9999999999994 L 502.9999999999984 552.9999999999978 L 504.6999999999984 552.9999999999923 L 506.3999999999984 552.9999999999726 L 508.0999999999984 552.9999999999055 L 509.79999999999836 552.9999999996836 L 511.49999999999835 552.999999998969 L 513.1999999999983 552.9999999967321 L 514.8999999999984 552.9999999899247 L 516.5999999999984 552.9999999697854 L 518.2999999999985 552.9999999118652 L 519.9999999999985 552.9999997499373 L 521.6999999999986 552.9999993098855 L 523.3999999999986 552.9999981474749 L 525.0999999999987 552.9999951629807 L 526.7999999999987 552.9999877153645 L 528.4999999999987 552.9999696528807 L 530.1999999999988 552.999927080546 L 531.8999999999988 552.9998295723382 L 533.5999999999989 552.9996125572815 L 535.2999999999989 552.9991432666732 L 536.999999999999 552.9981573003234 L 538.699999999999 552.9961449128674 L 540.3999999999991 552.9921551511976 L 542.0999999999991 552.9844723512884 L 543.7999999999992 552.9701050688656 L 545.4999999999992 552.944016485638 L 547.1999999999992 552.898025050553 L 548.8999999999993 552.8193252010964 L 550.5999999999993 552.6886331294454 L 552.2999999999994 552.4780631455259 L 553.9999999999994 552.1489907777813 L 555.6999999999995 551.6503495324871 L 557.3999999999995 550.9180078251559 L 559.0999999999996 549.8760245180815 L 560.7999999999996 548.4406085448434 L 562.4999999999997 546.5274280672967 L 564.1999999999997 544.0624675681825 L 565.8999999999997 540.9959134993512 L 567.5999999999998 537.3176427798973 L 569.2999999999998 533.0719727426584 L 570.9999999999999 528.3686613467445 L 572.6999999999999 523.386996188681 L 574.4 518.3703860447818 L 576.1 513.6102179155577 L 577.8000000000001 509.41969687982265 L 579.5000000000001 506.10056016985493 L 581.2000000000002 503.90742584522565 L 582.9000000000002 503.0155756921129 L 584.6000000000003 503.4978200415414 L 586.3000000000003 505.31468067801467 L 588.0000000000003 508.319728218255 L 589.7000000000004 512.2790728545406 L 591.4000000000004 516.9014091214764 L 593.1000000000005 521.8732640441231 L 594.8000000000005 526.8935599449808 L 596.5000000000006 531.7023116663496 L 598.2000000000006 536.0999487799855 L 599.9000000000007 539.9558941372806 L 601.6000000000007 543.207099337721 L 603.3000000000008 545.8487967133964 L 605.0000000000008 547.9205388962208 L 606.7000000000008 549.4906482988467 L 608.4000000000009 550.6416574288095 L 610.1000000000009 551.4584499591579 L 611.800000000001 552.0198803326704 L 613.500000000001 552.3938622657787 L 615.2000000000011 552.6353852118477 L 616.9000000000011 552.7866621190337 L 618.6000000000012 552.8785849800452 L 620.3000000000012 552.9327878799346 L 622.0000000000013 552.9638095891119 L 623.7000000000013 552.981045594227 L 625.4000000000013 552.9903439929558 L 627.1000000000014 552.9952152889631 L 628.8000000000014 552.9976938656981 L 630.5000000000015 552.9989188543206 L 632.2000000000015 552.9995069913048 L 633.9000000000016 552.9997813267391 L 635.6000000000016 552.9999056574688 L 637.3000000000017 552.9999604095801 L 639.0000000000017 552.9999838399228 L 640.7000000000018 552.9999935839536 L 642.4000000000018 552.9999975222225 L 644.1000000000018 552.9999990692611 L 645.8000000000019 552.9999996599333 L 647.5000000000019 552.9999998791432 L 649.200000000002 552.9999999582219 L 650.900000000002 552.9999999859525 L 652.6000000000021 552.9999999954057 L 654.3000000000021 552.9999999985384 L 656.0000000000022 552.9999999995478 L 657.7000000000022 552.9999999998639 L 659.4000000000023 552.9999999999601 L 661.1000000000023 552.9999999999886 L 662.8000000000023 552.9999999999968 L 664.5000000000024 552.9999999999992 L 666.2000000000024 552.9999999999998 L 667.9000000000025 553 L 669.6000000000025 553 L 671.3000000000026 553 L 673.0000000000026 553 L 674.7000000000027 553 L 676.4000000000027 553 L 678.1000000000028 553 L 679.8000000000028 553 L 681.5000000000028 553 L 683.2000000000029 553 L 684.9000000000029 553 L 686.600000000003 553 L 688.300000000003 553 L 690.0000000000031 553 L 691.7000000000031 553 L 693.4000000000032 553 L 695.1000000000032 553 L 696.8000000000033 553 L 698.5000000000033 553 L 700.2000000000033 553 L 701.9000000000034 553 L 703.6000000000034 553 L 705.3000000000035 553 L 707.0000000000035 553 L 708.7000000000036 553 L 710.4000000000036 553 L 712.1000000000037 553 L 713.8000000000037 553 L 715.5000000000038 553 L 717.2000000000038 553 L 718.9000000000038 553 L 720.6000000000039 553 L 722.3000000000039 553 L 724.000000000004 553 L 725.700000000004 553 L 727.4000000000041 553 L 729.1000000000041 553 L 730.8000000000042 553 L 732.5000000000042 553 L 734.2000000000043 553 L 735.9000000000043 553 L 737.6000000000043 553 L 739.3000000000044 553 L 741.0000000000044 553 L 742.7000000000045 553 L 744.4000000000045 553 L 746.1000000000046 553 L 747.8000000000046 553 L 749.5000000000047 553 L 751.2000000000047 553 L 752.9000000000048 553 L 754.6000000000048 553 L 756.3000000000048 553 L 758.0000000000049 553 L 759.7000000000049 553 L 761.400000000005 553 L 763.100000000005 553 L 764.8000000000051 553 L 766.5000000000051 553 L 768.2000000000052 553 L 769.9000000000052 553 L 771.6000000000053 553 L 773.3000000000053 553 L 775 553 Z" fill="url(#bellGrad)"/>
<path d="M 265 553 L 265 553 L 266.7 553 L 268.4 553 L 270.09999999999997 553 L 271.79999999999995 553 L 273.49999999999994 553 L 275.19999999999993 553 L 276.8999999999999 553 L 278.5999999999999 553 L 280.2999999999999 553 L 281.9999999999999 553 L 283.6999999999999 553 L 285.39999999999986 553 L 287.09999999999985 553 L 288.79999999999984 553 L 290.49999999999983 553 L 292.1999999999998 553 L 293.8999999999998 553 L 295.5999999999998 553 L 297.2999999999998 553 L 298.9999999999998 553 L 300.69999999999976 553 L 302.39999999999975 553 L 304.09999999999974 553 L 305.7999999999997 553 L 307.4999999999997 553 L 309.1999999999997 553 L 310.8999999999997 553 L 312.5999999999997 553 L 314.29999999999967 553 L 315.99999999999966 553 L 317.69999999999965 553 L 319.39999999999964 553 L 321.0999999999996 553 L 322.7999999999996 553 L 324.4999999999996 553 L 326.1999999999996 553 L 327.8999999999996 553 L 329.59999999999957 553 L 331.29999999999956 553 L 332.99999999999955 553 L 334.69999999999953 553 L 336.3999999999995 553 L 338.0999999999995 553 L 339.7999999999995 553 L 341.4999999999995 553 L 343.1999999999995 553 L 344.89999999999947 553 L 346.59999999999945 553 L 348.29999999999944 553 L 349.99999999999943 553 L 351.6999999999994 553 L 353.3999999999994 553 L 355.0999999999994 553 L 356.7999999999994 553 L 358.4999999999994 553 L 360.19999999999936 553 L 361.89999999999935 553 L 363.59999999999934 553 L 365.29999999999933 553 L 366.9999999999993 553 L 368.6999999999993 553 L 370.3999999999993 553 L 372.0999999999993 553 L 373.7999999999993 553 L 375.49999999999926 553 L 377.19999999999925 553 L 378.89999999999924 553 L 380.5999999999992 553 L 382.2999999999992 553 L 383.9999999999992 553 L 385.6999999999992 553 L 387.3999999999992 553 L 389.09999999999917 553 L 390.79999999999916 553 L 392.49999999999915 553 L 394.19999999999914 553 L 395.8999999999991 553 L 397.5999999999991 553 L 399.2999999999991 553 L 400.9999999999991 553 L 402.6999999999991 553 L 404.39999999999907 553 L 406.09999999999906 553 L 407.79999999999905 553 L 409.49999999999903 553 L 411.199999999999 553 L 412.899999999999 553 L 414.599999999999 553 L 416.299999999999 553 L 417.999999999999 553 L 419.69999999999897 553 L 421.39999999999895 553 L 423.09999999999894 553 L 424.79999999999893 553 L 426.4999999999989 553 L 428.1999999999989 553 L 429.8999999999989 553 L 431.5999999999989 553 L 433.2999999999989 553 L 434.99999999999886 553 L 436.69999999999885 553 L 438.39999999999884 553 L 440.09999999999883 553 L 441.7999999999988 553 L 443.4999999999988 553 L 445.1999999999988 553 L 446.8999999999988 553 L 448.5999999999988 553 L 450.29999999999876 553 L 451.99999999999875 553 L 453.69999999999874 553 L 455.3999999999987 553 L 457.0999999999987 553 L 458.7999999999987 553 L 460.4999999999987 553 L 462.1999999999987 553 L 463.89999999999867 553 L 465.59999999999866 553 L 467.29999999999865 553 L 468.99999999999864 553 L 470.6999999999986 553 L 472.3999999999986 553 L 474.0999999999986 553 L 475.7999999999986 553 L 477.4999999999986 553 L 479.19999999999857 553 L 480.89999999999856 553 L 482.59999999999854 553 L 484.29999999999853 553 L 485.9999999999985 553 L 487.6999999999985 553 L 489.3999999999985 553 L 491.0999999999985 553 L 492.7999999999985 553 L 494.49999999999847 553 L 496.19999999999845 553 L 497.89999999999844 553 L 499.59999999999843 552.9999999999999 L 501.2999999999984 552.9999999999994 L 502.9999999999984 552.9999999999978 L 504.6999999999984 552.9999999999923 L 506.3999999999984 552.9999999999726 L 508.0999999999984 552.9999999999055 L 509.79999999999836 552.9999999996836 L 511.49999999999835 552.999999998969 L 513.1999999999983 552.9999999967321 L 514.8999999999984 552.9999999899247 L 516.5999999999984 552.9999999697854 L 518.2999999999985 552.9999999118652 L 519.9999999999985 552.9999997499373 L 521.6999999999986 552.9999993098855 L 523.3999999999986 552.9999981474749 L 525.0999999999987 552.9999951629807 L 526.7999999999987 552.9999877153645 L 528.4999999999987 552.9999696528807 L 530.1999999999988 552.999927080546 L 531.8999999999988 552.9998295723382 L 533.5999999999989 552.9996125572815 L 535.2999999999989 552.9991432666732 L 536.999999999999 552.9981573003234 L 538.699999999999 552.9961449128674 L 540.3999999999991 552.9921551511976 L 542.0999999999991 552.9844723512884 L 543.7999999999992 552.9701050688656 L 545.4999999999992 552.944016485638 L 547.1999999999992 552.898025050553 L 548.8999999999993 552.8193252010964 L 550.5999999999993 552.6886331294454 L 552.2999999999994 552.4780631455259 L 553.9999999999994 552.1489907777813 L 555.6999999999995 551.6503495324871 L 557.3999999999995 550.9180078251559 L 559.0999999999996 549.8760245180815 L 560.7999999999996 548.4406085448434 L 562.4999999999997 546.5274280672967 L 564.1999999999997 544.0624675681825 L 565.8999999999997 540.9959134993512 L 567.5999999999998 537.3176427798973 L 569.2999999999998 533.0719727426584 L 570.9999999999999 528.3686613467445 L 572.6999999999999 523.386996188681 L 574.4 518.3703860447818 L 576.1 513.6102179155577 L 577.8000000000001 509.41969687982265 L 579.5000000000001 506.10056016985493 L 581.2000000000002 503.90742584522565 L 582.9000000000002 503.0155756921129 L 584.6000000000003 503.4978200415414 L 586.3000000000003 505.31468067801467 L 588.0000000000003 508.319728218255 L 589.7000000000004 512.2790728545406 L 591.4000000000004 516.9014091214764 L 593.1000000000005 521.8732640441231 L 594.8000000000005 526.8935599449808 L 596.5000000000006 531.7023116663496 L 598.2000000000006 536.0999487799855 L 599.9000000000007 539.9558941372806 L 601.6000000000007 543.207099337721 L 603.3000000000008 545.8487967133964 L 605.0000000000008 547.9205388962208 L 606.7000000000008 549.4906482988467 L 608.4000000000009 550.6416574288095 L 610.1000000000009 551.4584499591579 L 611.800000000001 552.0198803326704 L 613.500000000001 552.3938622657787 L 615.2000000000011 552.6353852118477 L 616.9000000000011 552.7866621190337 L 618.6000000000012 552.8785849800452 L 620.3000000000012 552.9327878799346 L 622.0000000000013 552.9638095891119 L 623.7000000000013 552.981045594227 L 625.4000000000013 552.9903439929558 L 627.1000000000014 552.9952152889631 L 628.8000000000014 552.9976938656981 L 630.5000000000015 552.9989188543206 L 632.2000000000015 552.9995069913048 L 633.9000000000016 552.9997813267391 L 635.6000000000016 552.9999056574688 L 637.3000000000017 552.9999604095801 L 639.0000000000017 552.9999838399228 L 640.7000000000018 552.9999935839536 L 642.4000000000018 552.9999975222225 L 644.1000000000018 552.9999990692611 L 645.8000000000019 552.9999996599333 L 647.5000000000019 552.9999998791432 L 649.200000000002 552.9999999582219 L 650.900000000002 552.9999999859525 L 652.6000000000021 552.9999999954057 L 654.3000000000021 552.9999999985384 L 656.0000000000022 552.9999999995478 L 657.7000000000022 552.9999999998639 L 659.4000000000023 552.9999999999601 L 661.1000000000023 552.9999999999886 L 662.8000000000023 552.9999999999968 L 664.5000000000024 552.9999999999992 L 666.2000000000024 552.9999999999998 L 667.9000000000025 553 L 669.6000000000025 553 L 671.3000000000026 553 L 673.0000000000026 553 L 674.7000000000027 553 L 676.4000000000027 553 L 678.1000000000028 553 L 679.8000000000028 553 L 681.5000000000028 553 L 683.2000000000029 553 L 684.9000000000029 553 L 686.600000000003 553 L 688.300000000003 553 L 690.0000000000031 553 L 691.7000000000031 553 L 693.4000000000032 553 L 695.1000000000032 553 L 696.8000000000033 553 L 698.5000000000033 553 L 700.2000000000033 553 L 701.9000000000034 553 L 703.6000000000034 553 L 705.3000000000035 553 L 707.0000000000035 553 L 708.7000000000036 553 L 710.4000000000036 553 L 712.1000000000037 553 L 713.8000000000037 553 L 715.5000000000038 553 L 717.2000000000038 553 L 718.9000000000038 553 L 720.6000000000039 553 L 722.3000000000039 553 L 724.000000000004 553 L 725.700000000004 553 L 727.4000000000041 553 L 729.1000000000041 553 L 730.8000000000042 553 L 732.5000000000042 553 L 734.2000000000043 553 L 735.9000000000043 553 L 737.6000000000043 553 L 739.3000000000044 553 L 741.0000000000044 553 L 742.7000000000045 553 L 744.4000000000045 553 L 746.1000000000046 553 L 747.8000000000046 553 L 749.5000000000047 553 L 751.2000000000047 553 L 752.9000000000048 553 L 754.6000000000048 553 L 756.3000000000048 553 L 758.0000000000049 553 L 759.7000000000049 553 L 761.400000000005 553 L 763.100000000005 553 L 764.8000000000051 553 L 766.5000000000051 553 L 768.2000000000052 553 L 769.9000000000052 553 L 771.6000000000053 553 L 773.3000000000053 553 L 775 553" fill="none" stroke="#E53935" stroke-width="2.5"/>
<rect x="574.6357057867544" y="498" width="23.360535912964906" height="55" fill="#E53935" opacity="0.12" rx="2"/>
<text x="583.1549817678482" y="595" text-anchor="middle" fill="#E53935" font-size="15" font-weight="700">0.21%</text>
<text x="583.1549817678482" y="611" text-anchor="middle" fill="#E53935" font-size="11">Combined median</text>
<text x="583.1549817678482" y="627" text-anchor="middle" fill="#999" font-size="10">95% interval: 0.19% – 0.25%</text>
</svg>